<svg width="24" height="24" viewBox="0 0 24 24" fill="none" xmlns="http://www.w3.org/2000/svg">
<path fill-rule="evenodd" clip-rule="evenodd" d="M12.4747 2.13009L20.5273 6.88726C20.8199 7.0601 21 7.37891 21 7.72387V16.2761C21 16.6211 20.8199 16.9399 20.5273 17.1127L12.4747 21.8699C12.181 22.0434 11.8189 22.0434 11.5253 21.8699L3.4727 17.1127C3.18014 16.9399 3 16.6211 3 16.2761V7.72387C3 7.37891 3.18014 7.06009 3.4727 6.88726L11.5253 2.13009C11.819 1.95664 12.1811 1.95664 12.4747 2.13009ZM14.8893 8.61656L12.0472 4.26642L9.20513 8.61656H14.8893ZM9.20511 10.0666L12.0472 15.3834L14.8893 10.0666L9.20511 10.0666ZM7.68928 11.0333L10.5314 16.3501L4.84717 15.8668L7.68928 11.0333ZM13.4683 16.3501L16.3104 11.0333L19.1525 15.8668L13.4683 16.3501ZM14.6998 5.23309L18.963 7.64984L16.5946 8.61653L14.6998 5.23309ZM5.13158 7.64984L9.39474 5.23309L7.5 8.61653L5.13158 7.64984ZM17.5421 9.58321L19.4368 8.61652V13.45L17.5421 9.58321ZM4.56303 8.61652L6.45777 9.58321L4.56303 13.45V8.61652ZM12.8053 17.8002V19.7336L16.9501 17.5L12.8053 17.8002ZM11.242 19.7336V17.8002L7.04994 17.5L11.242 19.7336Z" fill="white"/>
</svg>
