<svg width="33" height="38" viewBox="0 0 33 38" fill="none" xmlns="http://www.w3.org/2000/svg">
<g filter="url(#filter0_d)">
<path fill-rule="evenodd" clip-rule="evenodd" d="M19.8201 1.29582L31.1138 8.32592C32.2869 9.05611 33 10.34 33 11.7218V23.8388C33 25.1875 32.3204 26.4453 31.1923 27.1845L19.8974 34.5854C18.583 35.4466 16.8862 35.4585 15.5599 34.6158L3.85485 27.1786C2.69971 26.4446 2 25.171 2 23.8024V11.7578C2 10.3565 2.73326 9.05741 3.93292 8.33327L15.6392 1.26715C16.9273 0.489626 18.5428 0.500702 19.8201 1.29582ZM12 18C13.6569 18 15 16.6569 15 15C15 13.3432 13.6569 12 12 12C10.3431 12 9 13.3432 9 15C9 16.6569 10.3431 18 12 18ZM23 18C24.6569 18 26 16.6569 26 15C26 13.3432 24.6569 12 23 12C21.3431 12 20 13.3432 20 15C20 16.6569 21.3431 18 23 18ZM11.2601 22.3273C11.6316 21.9187 12.264 21.8886 12.6727 22.2601C15.4099 24.7484 19.5901 24.7484 22.3273 22.2601C22.736 21.8886 23.3684 21.9187 23.7399 22.3273C24.1114 22.736 24.0813 23.3685 23.6727 23.74C20.1726 26.9218 14.8274 26.9218 11.3273 23.74C10.9187 23.3685 10.8886 22.736 11.2601 22.3273Z" fill="#FCCE74"/>
</g>
<defs>
<filter id="filter0_d" x="0" y="0.69165" width="33" height="36.548" filterUnits="userSpaceOnUse" color-interpolation-filters="sRGB">
<feFlood flood-opacity="0" result="BackgroundImageFix"/>
<feColorMatrix in="SourceAlpha" type="matrix" values="0 0 0 0 0 0 0 0 0 0 0 0 0 0 0 0 0 0 127 0"/>
<feOffset dx="-2" dy="2"/>
<feColorMatrix type="matrix" values="0 0 0 0 0 0 0 0 0 0 0 0 0 0 0 0 0 0 0.5 0"/>
<feBlend mode="normal" in2="BackgroundImageFix" result="effect1_dropShadow"/>
<feBlend mode="normal" in="SourceGraphic" in2="effect1_dropShadow" result="shape"/>
</filter>
</defs>
</svg>
